<?xml version="1.0"?>
<svg xmlns="http://www.w3.org/2000/svg" height="512px" viewBox="-32 1 511 511.9995" width="512px" class=""><g><path d="m127.964844 512c-3.835938 0-7.675782-1.464844-10.605469-4.394531l-80.332031-80.332031c-2.8125-2.8125-4.394532-6.628907-4.394532-10.605469v-80.335938c0-3.976562 1.582032-7.792969 4.394532-10.605469l86.859375-86.859374h-53.972657l-43.808593 43.804687c-5.855469 5.859375-15.355469 5.859375-21.210938 0-5.859375-5.855469-5.859375-15.351563 0-21.210937l48.199219-48.199219c2.8125-2.8125 6.628906-4.394531 10.605469-4.394531h96.398437c6.070313 0 11.539063 3.65625 13.859375 9.257812 2.320313 5.605469 1.039063 12.058594-3.25 16.347656l-108.074219 108.074219v67.90625l75.941407 75.9375c5.855469 5.859375 5.855469 15.355469 0 21.214844-2.929688 2.929687-6.769531 4.394531-10.609375 4.394531zm0 0" fill="#4b4449" data-original="#4B4449" class="active-path" style="fill:#FEFFFF" data-old_color="#feffff"/><path d="m176.167969 222.800781c-3.839844 0-7.679688-1.464843-10.609375-4.394531l-64.265625-64.269531c-2.8125-2.8125-4.394531-6.625-4.394531-10.605469v-80.332031c0-3.976563 1.582031-7.792969 4.394531-10.605469l48.199219-48.199219c5.859374-5.859375 15.355468-5.859375 21.214843 0 5.855469 5.855469 5.855469 15.355469 0 21.210938l-43.808593 43.808593v67.90625l59.875 59.875c5.855468 5.855469 5.855468 15.351563 0 21.210938-2.929688 2.929688-6.769532 4.394531-10.605469 4.394531zm0 0" fill="#4b4449" data-original="#4B4449" class="active-path" style="fill:#FEFFFF" data-old_color="#feffff"/><path d="m320.765625 512c-3.839844 0-7.675781-1.464844-10.605469-4.394531-5.859375-5.859375-5.859375-15.355469 0-21.214844l75.941406-75.9375v-67.90625l-108.074218-108.074219c-4.292969-4.289062-5.574219-10.742187-3.253906-16.347656 2.324218-5.605469 7.792968-9.257812 13.859374-9.257812h96.398438c3.980469 0 7.792969 1.578124 10.605469 4.390624l48.203125 48.203126c5.855468 5.855468 5.855468 15.355468 0 21.210937-5.859375 5.859375-15.355469 5.859375-21.214844 0l-43.808594-43.804687h-53.96875l86.859375 86.859374c2.8125 2.8125 4.394531 6.625 4.394531 10.605469v80.332031c0 3.976563-1.582031 7.792969-4.394531 10.605469l-80.332031 80.332031c-2.929688 2.933594-6.769531 4.398438-10.609375 4.398438zm0 0" fill="#393238" data-original="#393238" class="" style="fill:#FEFFFF" data-old_color="#feffff"/><path d="m272.566406 222.800781c-3.839844 0-7.679687-1.464843-10.605468-4.394531-5.859376-5.859375-5.859376-15.355469 0-21.214844l59.871093-59.871094v-67.90625l-43.804687-43.808593c-5.859375-5.855469-5.859375-15.355469 0-21.210938 5.855468-5.859375 15.355468-5.859375 21.210937 0l48.199219 48.199219c2.816406 2.8125 4.394531 6.628906 4.394531 10.605469v80.332031c0 3.980469-1.578125 7.792969-4.394531 10.605469l-64.265625 64.269531c-2.925781 2.929688-6.765625 4.394531-10.605469 4.394531zm0 0" fill="#393238" data-original="#393238" class="" style="fill:#FEFFFF" data-old_color="#feffff"/><path d="m224.367188 206.734375c-25.988282 0-47.132813-21.144531-47.132813-47.132813 0-25.988281 21.144531-47.132812 47.132813-47.132812 25.988281 0 47.132812 21.144531 47.132812 47.132812 0 25.988282-21.144531 47.132813-47.132812 47.132813zm0 0" fill="#6400b9" data-original="#6400B9" class="" style="fill:#31C6A6" data-old_color="#32C8A7"/><path d="m224.367188 112.46875v94.261719c16.519531 0 31.070312-8.539063 39.488281-21.429688 4.832031-7.390625 7.640625-16.222656 7.640625-25.703125 0-25.988281-21.140625-47.128906-47.128906-47.128906zm0 0" fill="#5500a0" data-original="#5500A0" class="" style="fill:#17A98F" data-old_color="#16AA90"/><path d="m224.367188 367.398438c-52.566407 0-95.332032-42.765626-95.332032-95.332032s42.765625-95.332031 95.332032-95.332031c52.566406 0 95.332031 42.765625 95.332031 95.332031s-42.765625 95.332032-95.332031 95.332032zm0 0" fill="#8749cd" data-original="#8749CD" class="" style="fill:#11AC90" data-old_color="#11AD91"/><path d="m263.855469 185.300781c-12.039063-5.5-25.410157-8.570312-39.488281-8.570312v190.667969c52.570312 0 95.328124-42.769532 95.328124-95.328126 0-38.492187-22.917968-71.730468-55.839843-86.769531zm0 0" fill="#752ec3" data-original="#752EC3" class="" style="fill:#1CCBAA" data-old_color="#1ccbaa"/></g> </svg>
