<svg height="512pt" viewBox="0 -31 512.00013 512" width="512pt" xmlns="http://www.w3.org/2000/svg"><g fill="#9cdd05"><path d="m256 359.734375c-24.902344 0-45.003906 20.101563-45.003906 45.003906 0 24.902344 20.101562 45.003907 45.003906 45.003907s45.003906-20.101563 45.003906-45.003907c0-24.902343-20.101562-45.003906-45.003906-45.003906zm0 0"/><path d="m508.726562 108.3125-15.003906 18.601562c-4.800781 6.597657-14.101562 7.800782-20.703125 2.699219-58.503906-43.804687-130.609375-69.90625-209.519531-69.90625h-7.5c-80.105469 1.800781-152.515625 30.300781-210.71875 77.105469-6.601562 5.101562-15.902344 4.199219-21.304688-2.398438l-20.703124-26.105468c-5.097657-6.601563-4.199219-15.902344 2.402343-21 72.007813-57.304688 157.613281-87.308594 250.324219-87.308594s178.316406 30.003906 250.324219 87.308594c6.601562 5.097656 7.5 14.402344 2.402343 21.003906zm0 0"/><path d="m435.417969 202.21875-15.003907 18.902344c-5.097656 6.300781-14.097656 7.5-20.402343 3-38.402344-27.902344-85.503907-44.402344-136.511719-44.402344-2.402344 0-5.101562 0-7.5.300781-51.605469 1.5-99.308594 20.398438-137.113281 50.703125-6.601563 5.097656-16.203125 4.5-21.304688-2.101562l-21-26.402344c-5.101562-6.300781-4.199219-15.601562 2.101563-20.699219 50.703125-40.507812 111.90625-61.808593 177.316406-61.808593 65.101562 0 126.3125 21.300781 177.015625 61.507812 6.601563 5.097656 7.503906 14.699219 2.402344 21zm0 0"/><path d="m361.011719 296.429688-15.304688 19.5c-4.796875 5.699218-13.5 7.5-19.800781 3.300781-17.699219-12.300781-39.003906-19.5-62.40625-19.5-2.699219 0-5.097656 0-7.5.300781-24.003906 1.5-45.90625 10.800781-63.304688 25.199219-6.304687 5.101562-15.605468 3.902343-20.703124-2.699219l-21.003907-26.101562c-4.796875-6.300782-4.199219-15.601563 1.800781-20.703126 29.402344-23.402343 66.308594-35.105468 103.210938-35.105468s73.808594 11.703125 103.210938 35.105468c6 5.101563 6.597656 14.402344 1.800781 20.703126zm0 0"/></g><path d="m301.003906 404.738281c0 24.902344-20.101562 45.003907-45.003906 45.003907v-90.007813c24.902344 0 45.003906 20.101563 45.003906 45.003906zm0 0" fill="#6b0"/><path d="m359.210938 275.726562c6 5.101563 6.597656 14.402344 1.800781 20.703126l-15.304688 19.5c-4.796875 5.699218-13.5 7.5-19.800781 3.300781-17.699219-12.300781-39.003906-19.5-62.40625-19.5-2.699219 0-5.097656 0-7.5.300781v-59.410156c36.902344 0 73.808594 11.703125 103.210938 35.105468zm0 0" fill="#6b0"/><path d="m433.019531 181.214844c6.597657 5.101562 7.5 14.703125 2.398438 21.003906l-15 18.902344c-5.101563 6.300781-14.101563 7.5-20.402344 3-38.402344-27.902344-85.507813-44.40625-136.515625-44.40625-2.398438 0-5.097656 0-7.5.300781v-60.304687c65.105469 0 126.3125 21.300781 177.019531 61.503906zm0 0" fill="#6b0"/><path d="m508.726562 108.3125-15.003906 18.601562c-4.800781 6.597657-14.101562 7.800782-20.703125 2.699219-58.503906-43.804687-130.609375-69.90625-209.519531-69.90625h-7.5v-59.707031c92.710938 0 178.316406 30.003906 250.324219 87.308594 6.601562 5.097656 7.5 14.402344 2.402343 21.003906zm0 0" fill="#6b0"/></svg>